<svg width="278" height="75" viewBox="0 0 278 75" fill="none" xmlns="http://www.w3.org/2000/svg">
<path d="M17.8686 7.38281H15.6911C15.6513 7.10109 15.5701 6.85085 15.4474 6.6321C15.3248 6.41004 15.1674 6.22112 14.9751 6.06534C14.7829 5.90956 14.5608 5.79025 14.3089 5.70739C14.0604 5.62453 13.7902 5.5831 13.4986 5.5831C12.9716 5.5831 12.5125 5.71402 12.1214 5.97585C11.7304 6.23437 11.4271 6.61222 11.2116 7.10938C10.9962 7.60322 10.8885 8.20312 10.8885 8.90909C10.8885 9.63494 10.9962 10.2448 11.2116 10.7386C11.4304 11.2325 11.7353 11.6054 12.1264 11.8572C12.5175 12.1091 12.9699 12.2351 13.4837 12.2351C13.772 12.2351 14.0388 12.197 14.2841 12.1207C14.5327 12.0445 14.7531 11.9335 14.9453 11.7876C15.1375 11.6385 15.2966 11.4579 15.4226 11.2457C15.5518 11.0336 15.6413 10.7917 15.6911 10.5199L17.8686 10.5298C17.8123 10.9972 17.6714 11.4479 17.446 11.8821C17.224 12.313 16.924 12.6991 16.5462 13.0405C16.1716 13.3786 15.7242 13.647 15.2038 13.8459C14.6868 14.0414 14.1018 14.1392 13.4489 14.1392C12.5407 14.1392 11.7287 13.9337 11.0128 13.5227C10.3002 13.1117 9.73674 12.5168 9.32244 11.7379C8.91146 10.959 8.70597 10.0161 8.70597 8.90909C8.70597 7.79877 8.91477 6.85417 9.33239 6.07528C9.75 5.2964 10.3168 4.70312 11.0327 4.29545C11.7486 3.88447 12.554 3.67898 13.4489 3.67898C14.0388 3.67898 14.5857 3.76184 15.0895 3.92756C15.5966 4.09328 16.0457 4.33523 16.4368 4.65341C16.8279 4.96828 17.1461 5.3544 17.3913 5.81179C17.6399 6.26918 17.799 6.79285 17.8686 7.38281ZM22.8228 14.1491C22.0505 14.1491 21.3827 13.9851 20.8192 13.657C20.2591 13.3255 19.8266 12.8648 19.5217 12.2749C19.2167 11.6816 19.0643 10.9938 19.0643 10.2116C19.0643 9.42282 19.2167 8.73343 19.5217 8.14347C19.8266 7.55019 20.2591 7.08949 20.8192 6.76136C21.3827 6.42992 22.0505 6.2642 22.8228 6.2642C23.5951 6.2642 24.2612 6.42992 24.8214 6.76136C25.3848 7.08949 25.819 7.55019 26.1239 8.14347C26.4289 8.73343 26.5813 9.42282 26.5813 10.2116C26.5813 10.9938 26.4289 11.6816 26.1239 12.2749C25.819 12.8648 25.3848 13.3255 24.8214 13.657C24.2612 13.9851 23.5951 14.1491 22.8228 14.1491ZM22.8327 12.5085C23.1841 12.5085 23.4774 12.4091 23.7127 12.2102C23.948 12.008 24.1254 11.733 24.2447 11.3849C24.3673 11.0369 24.4286 10.6409 24.4286 10.1967C24.4286 9.7526 24.3673 9.35653 24.2447 9.00852C24.1254 8.66051 23.948 8.38542 23.7127 8.18324C23.4774 7.98106 23.1841 7.87997 22.8327 7.87997C22.4781 7.87997 22.1798 7.98106 21.9379 8.18324C21.6992 8.38542 21.5186 8.66051 21.396 9.00852C21.2766 9.35653 21.217 9.7526 21.217 10.1967C21.217 10.6409 21.2766 11.0369 21.396 11.3849C21.5186 11.733 21.6992 12.008 21.9379 12.2102C22.1798 12.4091 22.4781 12.5085 22.8327 12.5085ZM30.0763 9.58523V14H27.9585V6.36364H29.9769V7.71094H30.0664C30.2354 7.26681 30.5188 6.91548 30.9165 6.65696C31.3143 6.39512 31.7965 6.2642 32.3633 6.2642C32.8936 6.2642 33.3559 6.38021 33.7504 6.61222C34.1448 6.84422 34.4513 7.17566 34.6701 7.60653C34.8888 8.03409 34.9982 8.54451 34.9982 9.13778V14H32.8803V9.51562C32.8836 9.0483 32.7643 8.68371 32.5224 8.42188C32.2804 8.15672 31.9473 8.02415 31.5231 8.02415C31.238 8.02415 30.9862 8.08546 30.7674 8.2081C30.552 8.33073 30.3829 8.50971 30.2603 8.74503C30.141 8.97704 30.0797 9.2571 30.0763 9.58523ZM40.774 6.36364V7.95455H36.0609V6.36364H40.774ZM37.1397 14V5.81179C37.1397 5.25829 37.2475 4.79924 37.4629 4.43466C37.6816 4.07008 37.9799 3.79664 38.3578 3.61435C38.7356 3.43205 39.1648 3.34091 39.6454 3.34091C39.9702 3.34091 40.2669 3.36577 40.5353 3.41548C40.8071 3.4652 41.0093 3.50994 41.1419 3.54972L40.764 5.14062C40.6812 5.11411 40.5784 5.08925 40.4558 5.06605C40.3365 5.04285 40.2138 5.03125 40.0879 5.03125C39.7763 5.03125 39.5592 5.10417 39.4366 5.25C39.314 5.39252 39.2527 5.59304 39.2527 5.85156V14H37.1397ZM42.0678 14V6.36364H44.1857V14H42.0678ZM43.1317 5.37926C42.8169 5.37926 42.5468 5.27486 42.3214 5.06605C42.0993 4.85393 41.9883 4.60038 41.9883 4.3054C41.9883 4.01373 42.0993 3.76349 42.3214 3.55469C42.5468 3.34257 42.8169 3.23651 43.1317 3.23651C43.4466 3.23651 43.7151 3.34257 43.9371 3.55469C44.1625 3.76349 44.2752 4.01373 44.2752 4.3054C44.2752 4.60038 44.1625 4.85393 43.9371 5.06605C43.7151 5.27486 43.4466 5.37926 43.1317 5.37926ZM45.8823 14V6.36364H47.9355V7.69602H48.0151C48.1543 7.22206 48.388 6.86411 48.7161 6.62216C49.0442 6.37689 49.4221 6.25426 49.8496 6.25426C49.9557 6.25426 50.07 6.26089 50.1926 6.27415C50.3153 6.28741 50.423 6.30563 50.5158 6.32883V8.2081C50.4164 8.17827 50.2788 8.15175 50.1032 8.12855C49.9275 8.10535 49.7667 8.09375 49.6209 8.09375C49.3094 8.09375 49.031 8.1617 48.7857 8.29759C48.5437 8.43016 48.3515 8.61577 48.209 8.8544C48.0698 9.09304 48.0002 9.36813 48.0002 9.67969V14H45.8823ZM51.6108 14V6.36364H53.6293V7.71094H53.7188C53.8778 7.26349 54.143 6.91051 54.5142 6.65199C54.8854 6.39347 55.3295 6.2642 55.8466 6.2642C56.3703 6.2642 56.8161 6.39512 57.1839 6.65696C57.5518 6.91548 57.7971 7.26681 57.9197 7.71094H57.9993C58.1551 7.27344 58.4368 6.92377 58.8445 6.66193C59.2554 6.39678 59.741 6.2642 60.3011 6.2642C61.0137 6.2642 61.5921 6.49124 62.0362 6.94531C62.4837 7.39607 62.7074 8.03575 62.7074 8.86435V14H60.5945V9.28196C60.5945 8.85772 60.4818 8.53954 60.2564 8.32741C60.031 8.11529 59.7493 8.00923 59.4112 8.00923C59.0268 8.00923 58.7268 8.13187 58.5114 8.37713C58.2959 8.61908 58.1882 8.93892 58.1882 9.33665V14H56.1349V9.23722C56.1349 8.86269 56.0272 8.56439 55.8118 8.34233C55.5997 8.12026 55.3196 8.00923 54.9716 8.00923C54.7363 8.00923 54.5241 8.06889 54.3352 8.18821C54.1496 8.30421 54.0021 8.46828 53.8928 8.6804C53.7834 8.8892 53.7287 9.13447 53.7287 9.41619V14H51.6108ZM66.5579 14.1442C66.0707 14.1442 65.6365 14.0597 65.2553 13.8906C64.8742 13.7183 64.5726 13.4647 64.3505 13.13C64.1317 12.7919 64.0224 12.371 64.0224 11.8672C64.0224 11.4429 64.1003 11.0866 64.256 10.7983C64.4118 10.5099 64.6239 10.2779 64.8924 10.1023C65.1609 9.92661 65.4658 9.79403 65.8072 9.70455C66.1519 9.61506 66.5131 9.55208 66.891 9.51562C67.3351 9.46922 67.6931 9.42614 67.9648 9.38636C68.2366 9.34328 68.4338 9.2803 68.5565 9.19744C68.6791 9.11458 68.7404 8.99195 68.7404 8.82955V8.79972C68.7404 8.48485 68.641 8.24124 68.4421 8.06889C68.2466 7.89654 67.9682 7.81037 67.6069 7.81037C67.2257 7.81037 66.9225 7.89489 66.6971 8.06392C66.4717 8.22964 66.3226 8.43845 66.2496 8.69034L64.2908 8.53125C64.3903 8.06723 64.5858 7.66619 64.8775 7.32812C65.1692 6.98674 65.5453 6.7249 66.006 6.54261C66.4701 6.35701 67.007 6.2642 67.6168 6.2642C68.0411 6.2642 68.4471 6.31392 68.8349 6.41335C69.226 6.51278 69.5723 6.6669 69.8739 6.87571C70.1789 7.08452 70.4192 7.35298 70.5948 7.68111C70.7705 8.00592 70.8583 8.39536 70.8583 8.84943V14H68.8498V12.9411H68.7901C68.6675 13.1797 68.5034 13.3902 68.2979 13.5724C68.0924 13.7514 67.8455 13.8923 67.5572 13.995C67.2688 14.0945 66.9357 14.1442 66.5579 14.1442ZM67.1644 12.6825C67.476 12.6825 67.7511 12.6212 67.9897 12.4986C68.2283 12.3726 68.4156 12.2036 68.5515 11.9915C68.6874 11.7794 68.7553 11.5391 68.7553 11.2706V10.4602C68.689 10.5033 68.5979 10.5431 68.4819 10.5795C68.3692 10.6127 68.2416 10.6442 68.0991 10.674C67.9566 10.7005 67.814 10.7254 67.6715 10.7486C67.529 10.7685 67.3997 10.7867 67.2837 10.8033C67.0352 10.8397 66.8181 10.8977 66.6325 10.9773C66.4469 11.0568 66.3027 11.1645 66.1999 11.3004C66.0972 11.433 66.0458 11.5987 66.0458 11.7976C66.0458 12.0859 66.1502 12.3063 66.359 12.4588C66.5711 12.608 66.8396 12.6825 67.1644 12.6825ZM76.5632 6.36364V7.95455H71.9645V6.36364H76.5632ZM73.0085 4.53409H75.1264V11.6534C75.1264 11.849 75.1563 12.0014 75.2159 12.1108C75.2756 12.2169 75.3584 12.2914 75.4645 12.3345C75.5739 12.3776 75.6998 12.3991 75.8423 12.3991C75.9418 12.3991 76.0412 12.3909 76.1406 12.3743C76.2401 12.3544 76.3163 12.3395 76.3693 12.3295L76.7024 13.9055C76.5964 13.9387 76.4472 13.9768 76.255 14.0199C76.0627 14.0663 75.8291 14.0945 75.554 14.1044C75.0436 14.1243 74.5961 14.0563 74.2116 13.9006C73.8305 13.7448 73.5339 13.5028 73.3217 13.1747C73.1096 12.8466 73.0052 12.4323 73.0085 11.9318V4.53409ZM77.9428 14V6.36364H80.0607V14H77.9428ZM79.0067 5.37926C78.6919 5.37926 78.4218 5.27486 78.1964 5.06605C77.9743 4.85393 77.8633 4.60038 77.8633 4.3054C77.8633 4.01373 77.9743 3.76349 78.1964 3.55469C78.4218 3.34257 78.6919 3.23651 79.0067 3.23651C79.3216 3.23651 79.5901 3.34257 79.8121 3.55469C80.0375 3.76349 80.1502 4.01373 80.1502 4.3054C80.1502 4.60038 80.0375 4.85393 79.8121 5.06605C79.5901 5.27486 79.3216 5.37926 79.0067 5.37926ZM85.2076 14.1491C84.4353 14.1491 83.7675 13.9851 83.204 13.657C82.6439 13.3255 82.2114 12.8648 81.9064 12.2749C81.6015 11.6816 81.449 10.9938 81.449 10.2116C81.449 9.42282 81.6015 8.73343 81.9064 8.14347C82.2114 7.55019 82.6439 7.08949 83.204 6.76136C83.7675 6.42992 84.4353 6.2642 85.2076 6.2642C85.9798 6.2642 86.646 6.42992 87.2061 6.76136C87.7696 7.08949 88.2038 7.55019 88.5087 8.14347C88.8136 8.73343 88.9661 9.42282 88.9661 10.2116C88.9661 10.9938 88.8136 11.6816 88.5087 12.2749C88.2038 12.8648 87.7696 13.3255 87.2061 13.657C86.646 13.9851 85.9798 14.1491 85.2076 14.1491ZM85.2175 12.5085C85.5688 12.5085 85.8622 12.4091 86.0975 12.2102C86.3328 12.008 86.5101 11.733 86.6294 11.3849C86.7521 11.0369 86.8134 10.6409 86.8134 10.1967C86.8134 9.7526 86.7521 9.35653 86.6294 9.00852C86.5101 8.66051 86.3328 8.38542 86.0975 8.18324C85.8622 7.98106 85.5688 7.87997 85.2175 7.87997C84.8629 7.87997 84.5646 7.98106 84.3226 8.18324C84.084 8.38542 83.9034 8.66051 83.7807 9.00852C83.6614 9.35653 83.6017 9.7526 83.6017 10.1967C83.6017 10.6409 83.6614 11.0369 83.7807 11.3849C83.9034 11.733 84.084 12.008 84.3226 12.2102C84.5646 12.4091 84.8629 12.5085 85.2175 12.5085ZM92.4611 9.58523V14H90.3432V6.36364H92.3617V7.71094H92.4512C92.6202 7.26681 92.9036 6.91548 93.3013 6.65696C93.699 6.39512 94.1813 6.2642 94.748 6.2642C95.2783 6.2642 95.7407 6.38021 96.1351 6.61222C96.5295 6.84422 96.8361 7.17566 97.0549 7.60653C97.2736 8.03409 97.383 8.54451 97.383 9.13778V14H95.2651V9.51562C95.2684 9.0483 95.1491 8.68371 94.9071 8.42188C94.6652 8.15672 94.3321 8.02415 93.9078 8.02415C93.6228 8.02415 93.3709 8.08546 93.1522 8.2081C92.9367 8.33073 92.7677 8.50971 92.6451 8.74503C92.5257 8.97704 92.4644 9.2571 92.4611 9.58523Z" fill="#1A1A1A"/>
<path d="M1.99268 57H1.07959V49.1475H1.99268V57ZM6.7998 51.0059C7.51595 51.0059 8.05127 51.1795 8.40576 51.5269C8.76025 51.8742 8.9375 52.4185 8.9375 53.1597V57H8.0459V53.1919C8.0459 52.7085 7.9349 52.3504 7.71289 52.1177C7.49447 51.8849 7.1543 51.7686 6.69238 51.7686C6.07292 51.7686 5.61995 51.9351 5.3335 52.2681C5.05062 52.6011 4.90918 53.1489 4.90918 53.9116V57H4.01758V51.1133H4.74268L4.8877 51.9189H4.93066C5.11328 51.6289 5.36751 51.4051 5.69336 51.2476C6.02279 51.0864 6.3916 51.0059 6.7998 51.0059ZM11.7305 51.1133H13.4385V51.8062H11.7305V55.2705C11.7305 55.6214 11.8128 55.8936 11.9775 56.0869C12.1458 56.2767 12.375 56.3716 12.665 56.3716C12.9551 56.3716 13.2272 56.3358 13.4814 56.2642V56.9517C13.3955 56.9946 13.2559 57.0304 13.0625 57.0591C12.8691 57.0913 12.6973 57.1074 12.5469 57.1074C11.4082 57.1074 10.8389 56.5076 10.8389 55.3081V51.8062H9.99561V51.3765L10.8389 51.0059L11.2148 49.749H11.7305V51.1133ZM17.3486 51.0059C17.6064 51.0059 17.841 51.0273 18.0522 51.0703L17.9287 51.8975C17.6852 51.8438 17.4704 51.8169 17.2842 51.8169C16.8044 51.8169 16.3962 52.0103 16.0596 52.397C15.723 52.7801 15.5547 53.2617 15.5547 53.8418V57H14.6631V51.1133H15.3989L15.501 52.2036H15.5439C15.7624 51.8169 16.0256 51.5215 16.3335 51.3174C16.645 51.1097 16.9834 51.0059 17.3486 51.0059ZM18.8203 54.0513C18.8203 53.0916 19.0584 52.3451 19.5347 51.8115C20.0145 51.2744 20.6733 51.0059 21.5112 51.0059C22.3527 51.0059 23.0133 51.2798 23.4932 51.8276C23.9837 52.3719 24.229 53.1185 24.229 54.0674C24.229 55.0163 23.9873 55.7611 23.5039 56.3018C23.0205 56.8389 22.3527 57.1074 21.5005 57.1074C21.4862 57.1074 21.4718 57.1074 21.4575 57.1074C20.6805 57.1074 20.0467 56.8317 19.5562 56.2803C19.0656 55.7288 18.8203 55.0109 18.8203 54.1265C18.8203 54.1014 18.8203 54.0763 18.8203 54.0513ZM21.5112 51.7686C20.3332 51.7686 19.7441 52.5295 19.7441 54.0513C19.7441 54.8032 19.8945 55.3761 20.1953 55.77C20.4997 56.1639 20.9419 56.3608 21.522 56.3608C22.1056 56.3608 22.5479 56.1657 22.8486 55.7754C23.153 55.3815 23.3052 54.8086 23.3052 54.0566C23.3052 53.3047 23.153 52.7354 22.8486 52.3486C22.5479 51.9619 22.1021 51.7686 21.5112 51.7686ZM30.6528 57H29.9277L29.8096 56.2104H29.7612C29.3459 56.8084 28.7407 57.1074 27.9458 57.1074C27.1545 57.1074 26.5439 56.8442 26.1143 56.3179C25.6882 55.7879 25.4751 55.0396 25.4751 54.0728C25.4751 53.1024 25.6899 52.3486 26.1196 51.8115C26.5493 51.2744 27.1545 51.0059 27.9351 51.0059C28.7192 51.0059 29.3244 51.2959 29.7505 51.876H29.8203L29.7827 51.4517L29.7612 51.0381V48.6426H30.6528V57ZM29.7612 54.2607V54.0728C29.7612 53.2384 29.6216 52.644 29.3423 52.2896C29.0737 51.9351 28.6315 51.7578 28.0156 51.7578C27.4928 51.7578 27.0918 51.9601 26.8125 52.3647C26.5368 52.7658 26.3989 53.3405 26.3989 54.0889C26.3989 54.8372 26.5368 55.403 26.8125 55.7861C27.0882 56.1693 27.4928 56.3608 28.0264 56.3608C28.6351 56.3608 29.0755 56.1961 29.3477 55.8667C29.6234 55.5337 29.7612 54.9984 29.7612 54.2607ZM37.4097 57H36.6738L36.5449 56.2104H36.4966C36.314 56.5005 36.0615 56.7225 35.7393 56.8765C35.417 57.0304 35.0464 57.1074 34.6274 57.1074C33.9006 57.1074 33.3617 56.9373 33.0107 56.5972C32.6598 56.2534 32.4844 55.7091 32.4844 54.9644V51.1133H33.3867V54.9321C33.3867 55.4155 33.4959 55.7754 33.7144 56.0117C33.9364 56.2445 34.2783 56.3608 34.7402 56.3608C35.3561 56.3608 35.8055 56.1925 36.0884 55.856C36.3748 55.5158 36.5181 54.9661 36.5181 54.207V51.1133H37.4097V57ZM43.0708 56.3071V57H38.8008V56.3931L42.0127 51.8062H38.9995V51.1133H42.9902V51.8062L39.8213 56.3071H43.0708ZM46.8037 57.1074C45.9515 57.1074 45.2909 56.846 44.8218 56.3232C44.3563 55.8005 44.1235 55.0521 44.1235 54.0781C44.1235 53.1042 44.3599 52.3486 44.8325 51.8115C45.3088 51.2744 45.9855 51.0059 46.8628 51.0059C47.1349 51.0059 47.4106 51.0363 47.6899 51.0972C47.9728 51.1545 48.202 51.2261 48.3774 51.312L48.1035 52.0693C47.903 51.9906 47.6917 51.9261 47.4697 51.876C47.2477 51.8258 47.0382 51.8008 46.8413 51.8008C45.6453 51.8008 45.0474 52.5617 45.0474 54.0835C45.0474 54.8104 45.1942 55.3672 45.4878 55.7539C45.7814 56.137 46.2129 56.3286 46.7822 56.3286C47.2692 56.3286 47.7723 56.223 48.2915 56.0117V56.8013C47.8905 57.0054 47.3945 57.1074 46.8037 57.1074ZM49.9028 51.5215C50.5187 51.1849 51.1812 51.0166 51.8901 51.0166C52.5991 51.0166 53.1201 51.1742 53.4531 51.4893C53.7897 51.8008 53.958 52.2985 53.958 52.9824V57H53.3027L53.1255 56.1621H53.0825C52.7889 56.5309 52.4953 56.7816 52.2017 56.9141C51.9116 57.043 51.5482 57.1074 51.1113 57.1074C50.5277 57.1074 50.0693 56.957 49.7363 56.6562C49.4033 56.3519 49.2368 55.924 49.2368 55.3726C49.2368 54.1873 50.1893 53.5643 52.0942 53.5034L53.0933 53.4712V53.106C53.0933 52.6405 52.993 52.3003 52.7925 52.0854C52.5955 51.867 52.2625 51.7578 51.7935 51.7578C51.3244 51.7578 50.7855 51.9064 50.1768 52.2036L49.9028 51.5215ZM50.1768 55.3833C50.1768 55.702 50.2734 55.9473 50.4668 56.1191C50.6602 56.2874 50.9341 56.3716 51.2886 56.3716C51.8436 56.3716 52.2786 56.2194 52.5938 55.915C52.9124 55.6071 53.0718 55.181 53.0718 54.6367V54.105L52.1802 54.1426C51.4712 54.1676 50.9591 54.2786 50.644 54.4756C50.3325 54.6689 50.1768 54.9715 50.1768 55.3833ZM59.5547 57H58.6631V48.6426H59.5547V57ZM61.1123 54.0513C61.1123 53.0916 61.3504 52.3451 61.8267 51.8115C62.3065 51.2744 62.9653 51.0059 63.8032 51.0059C64.6447 51.0059 65.3053 51.2798 65.7852 51.8276C66.2757 52.3719 66.521 53.1185 66.521 54.0674C66.521 55.0163 66.2793 55.7611 65.7959 56.3018C65.3125 56.8389 64.6447 57.1074 63.7925 57.1074C63.7782 57.1074 63.7638 57.1074 63.7495 57.1074C62.9725 57.1074 62.3387 56.8317 61.8481 56.2803C61.3576 55.7288 61.1123 55.0109 61.1123 54.1265C61.1123 54.1014 61.1123 54.0763 61.1123 54.0513ZM63.8032 51.7686C62.6252 51.7686 62.0361 52.5295 62.0361 54.0513C62.0361 54.8032 62.1865 55.3761 62.4873 55.77C62.7917 56.1639 63.2339 56.3608 63.814 56.3608C64.3976 56.3608 64.8398 56.1657 65.1406 55.7754C65.445 55.3815 65.5972 54.8086 65.5972 54.0566C65.5972 53.3047 65.445 52.7354 65.1406 52.3486C64.8398 51.9619 64.394 51.7686 63.8032 51.7686ZM69.5825 56.3716C70.5493 56.3716 71.0327 56.0708 71.0327 55.4692C71.0327 55.2401 70.9325 55.0449 70.7319 54.8838C70.535 54.7191 70.1483 54.5257 69.5718 54.3037C69.0203 54.0996 68.6283 53.9206 68.3955 53.7666C68.1663 53.6126 67.9963 53.4408 67.8853 53.251C67.7743 53.0612 67.7188 52.8302 67.7188 52.5581C67.7188 52.0819 67.9139 51.7041 68.3042 51.4248C68.6945 51.1455 69.2173 51.0059 69.8726 51.0059C70.5278 51.0059 71.1598 51.1348 71.7686 51.3926L71.4517 52.1177C70.8644 51.8778 70.3452 51.7578 69.894 51.7578C69.4465 51.7578 69.1134 51.8223 68.895 51.9512C68.6766 52.0801 68.5674 52.2627 68.5674 52.499C68.5674 52.6566 68.6068 52.7909 68.6855 52.9019C68.7643 53.0129 68.8932 53.1185 69.0723 53.2188C69.2513 53.319 69.5968 53.464 70.1089 53.6538C70.8071 53.908 71.278 54.1641 71.5215 54.4219C71.7686 54.6797 71.8921 55.0037 71.8921 55.394C71.8921 55.9419 71.6862 56.3644 71.2744 56.6616C70.8662 56.9588 70.2826 57.1074 69.5234 57.1074C68.7679 57.1074 68.1717 56.9839 67.7349 56.7368V55.9097C68.3436 56.2176 68.9595 56.3716 69.5825 56.3716ZM81.0444 57H80.3193L80.2012 56.2104H80.1528C79.7375 56.8084 79.1323 57.1074 78.3374 57.1074C77.5461 57.1074 76.9355 56.8442 76.5059 56.3179C76.0798 55.7879 75.8667 55.0396 75.8667 54.0728C75.8667 53.1024 76.0815 52.3486 76.5112 51.8115C76.9409 51.2744 77.5461 51.0059 78.3267 51.0059C79.1108 51.0059 79.716 51.2959 80.1421 51.876H80.2119L80.1743 51.4517L80.1528 51.0381V48.6426H81.0444V57ZM80.1528 54.2607V54.0728C80.1528 53.2384 80.0132 52.644 79.7339 52.2896C79.4653 51.9351 79.0231 51.7578 78.4072 51.7578C77.8844 51.7578 77.4834 51.9601 77.2041 52.3647C76.9284 52.7658 76.7905 53.3405 76.7905 54.0889C76.7905 54.8372 76.9284 55.403 77.2041 55.7861C77.4798 56.1693 77.8844 56.3608 78.418 56.3608C79.0267 56.3608 79.4671 56.1961 79.7393 55.8667C80.015 55.5337 80.1528 54.9984 80.1528 54.2607ZM83.1606 51.5215C83.7765 51.1849 84.439 51.0166 85.1479 51.0166C85.8569 51.0166 86.3779 51.1742 86.7109 51.4893C87.0475 51.8008 87.2158 52.2985 87.2158 52.9824V57H86.5605L86.3833 56.1621H86.3403C86.0467 56.5309 85.7531 56.7816 85.4595 56.9141C85.1694 57.043 84.806 57.1074 84.3691 57.1074C83.7855 57.1074 83.3271 56.957 82.9941 56.6562C82.6611 56.3519 82.4946 55.924 82.4946 55.3726C82.4946 54.1873 83.4471 53.5643 85.3521 53.5034L86.3511 53.4712V53.106C86.3511 52.6405 86.2508 52.3003 86.0503 52.0854C85.8534 51.867 85.5203 51.7578 85.0513 51.7578C84.5822 51.7578 84.0433 51.9064 83.4346 52.2036L83.1606 51.5215ZM83.4346 55.3833C83.4346 55.702 83.5312 55.9473 83.7246 56.1191C83.918 56.2874 84.1919 56.3716 84.5464 56.3716C85.1014 56.3716 85.5365 56.2194 85.8516 55.915C86.1702 55.6071 86.3296 55.181 86.3296 54.6367V54.105L85.438 54.1426C84.729 54.1676 84.217 54.2786 83.9019 54.4756C83.5903 54.6689 83.4346 54.9715 83.4346 55.3833ZM90.0195 51.1133H91.7275V51.8062H90.0195V55.2705C90.0195 55.6214 90.1019 55.8936 90.2666 56.0869C90.4349 56.2767 90.6641 56.3716 90.9541 56.3716C91.2441 56.3716 91.5163 56.3358 91.7705 56.2642V56.9517C91.6846 56.9946 91.5449 57.0304 91.3516 57.0591C91.1582 57.0913 90.9863 57.1074 90.8359 57.1074C89.6973 57.1074 89.1279 56.5076 89.1279 55.3081V51.8062H88.2847V51.3765L89.1279 51.0059L89.5039 49.749H90.0195V51.1133ZM92.6191 54.0513C92.6191 53.0916 92.8573 52.3451 93.3335 51.8115C93.8133 51.2744 94.4722 51.0059 95.3101 51.0059C96.1515 51.0059 96.8122 51.2798 97.292 51.8276C97.7826 52.3719 98.0278 53.1185 98.0278 54.0674C98.0278 55.0163 97.7861 55.7611 97.3027 56.3018C96.8193 56.8389 96.1515 57.1074 95.2993 57.1074C95.285 57.1074 95.2707 57.1074 95.2563 57.1074C94.4793 57.1074 93.8455 56.8317 93.355 56.2803C92.8644 55.7288 92.6191 55.0109 92.6191 54.1265C92.6191 54.1014 92.6191 54.0763 92.6191 54.0513ZM95.3101 51.7686C94.132 51.7686 93.543 52.5295 93.543 54.0513C93.543 54.8032 93.6934 55.3761 93.9941 55.77C94.2985 56.1639 94.7407 56.3608 95.3208 56.3608C95.9045 56.3608 96.3467 56.1657 96.6475 55.7754C96.9518 55.3815 97.104 54.8086 97.104 54.0566C97.104 53.3047 96.9518 52.7354 96.6475 52.3486C96.3467 51.9619 95.9009 51.7686 95.3101 51.7686ZM101.089 56.3716C102.056 56.3716 102.54 56.0708 102.54 55.4692C102.54 55.2401 102.439 55.0449 102.239 54.8838C102.042 54.7191 101.655 54.5257 101.079 54.3037C100.527 54.0996 100.135 53.9206 99.9023 53.7666C99.6732 53.6126 99.5031 53.4408 99.3921 53.251C99.2811 53.0612 99.2256 52.8302 99.2256 52.5581C99.2256 52.0819 99.4207 51.7041 99.811 51.4248C100.201 51.1455 100.724 51.0059 101.379 51.0059C102.035 51.0059 102.667 51.1348 103.275 51.3926L102.958 52.1177C102.371 51.8778 101.852 51.7578 101.401 51.7578C100.953 51.7578 100.62 51.8223 100.402 51.9512C100.183 52.0801 100.074 52.2627 100.074 52.499C100.074 52.6566 100.114 52.7909 100.192 52.9019C100.271 53.0129 100.4 53.1185 100.579 53.2188C100.758 53.319 101.104 53.464 101.616 53.6538C102.314 53.908 102.785 54.1641 103.028 54.4219C103.275 54.6797 103.399 55.0037 103.399 55.394C103.399 55.9419 103.193 56.3644 102.781 56.6616C102.373 56.9588 101.789 57.1074 101.03 57.1074C100.275 57.1074 99.6785 56.9839 99.2417 56.7368V55.9097C99.8504 56.2176 100.466 56.3716 101.089 56.3716ZM112.551 57H111.826L111.708 56.2104H111.66C111.244 56.8084 110.639 57.1074 109.844 57.1074C109.053 57.1074 108.442 56.8442 108.013 56.3179C107.587 55.7879 107.374 55.0396 107.374 54.0728C107.374 53.1024 107.588 52.3486 108.018 51.8115C108.448 51.2744 109.053 51.0059 109.833 51.0059C110.618 51.0059 111.223 51.2959 111.649 51.876H111.719L111.681 51.4517L111.66 51.0381V48.6426H112.551V57ZM111.66 54.2607V54.0728C111.66 53.2384 111.52 52.644 111.241 52.2896C110.972 51.9351 110.53 51.7578 109.914 51.7578C109.391 51.7578 108.99 51.9601 108.711 52.3647C108.435 52.7658 108.297 53.3405 108.297 54.0889C108.297 54.8372 108.435 55.403 108.711 55.7861C108.987 56.1693 109.391 56.3608 109.925 56.3608C110.534 56.3608 110.974 56.1961 111.246 55.8667C111.522 55.5337 111.66 54.9984 111.66 54.2607ZM116.934 57.1074C116.064 57.1074 115.376 56.8424 114.872 56.3125C114.37 55.779 114.12 55.0396 114.12 54.0942C114.12 53.1489 114.352 52.3988 114.818 51.8438C115.287 51.2852 115.903 51.0059 116.666 51.0059C117.432 51.0059 118.028 51.2511 118.454 51.7417C118.884 52.2179 119.099 52.8553 119.099 53.6538V54.2178H115.043C115.061 54.9053 115.235 55.4299 115.564 55.7915C115.894 56.1496 116.368 56.3286 116.988 56.3286C117.607 56.3286 118.225 56.1961 118.841 55.9312V56.7261C118.529 56.8621 118.23 56.9588 117.944 57.0161C117.661 57.077 117.324 57.1074 116.934 57.1074ZM118.143 53.4927C118.143 52.9341 118.017 52.5062 117.767 52.209C117.516 51.9082 117.156 51.7578 116.687 51.7578C116.222 51.7578 115.847 51.91 115.564 52.2144C115.282 52.5187 115.115 52.9448 115.065 53.4927H118.143ZM124.969 56.3716C125.936 56.3716 126.419 56.0708 126.419 55.4692C126.419 55.2401 126.319 55.0449 126.119 54.8838C125.922 54.7191 125.535 54.5257 124.958 54.3037C124.407 54.0996 124.015 53.9206 123.782 53.7666C123.553 53.6126 123.383 53.4408 123.272 53.251C123.161 53.0612 123.105 52.8302 123.105 52.5581C123.105 52.0819 123.301 51.7041 123.691 51.4248C124.081 51.1455 124.604 51.0059 125.259 51.0059C125.915 51.0059 126.547 51.1348 127.155 51.3926L126.838 52.1177C126.251 51.8778 125.732 51.7578 125.281 51.7578C124.833 51.7578 124.5 51.8223 124.282 51.9512C124.063 52.0801 123.954 52.2627 123.954 52.499C123.954 52.6566 123.993 52.7909 124.072 52.9019C124.151 53.0129 124.28 53.1185 124.459 53.2188C124.638 53.319 124.984 53.464 125.496 53.6538C126.194 53.908 126.665 54.1641 126.908 54.4219C127.155 54.6797 127.279 55.0037 127.279 55.394C127.279 55.9419 127.073 56.3644 126.661 56.6616C126.253 56.9588 125.669 57.1074 124.91 57.1074C124.155 57.1074 123.558 56.9839 123.122 56.7368V55.9097C123.73 56.2176 124.346 56.3716 124.969 56.3716ZM133.584 57H132.849L132.72 56.2104H132.671C132.489 56.5005 132.236 56.7225 131.914 56.8765C131.592 57.0304 131.221 57.1074 130.802 57.1074C130.075 57.1074 129.536 56.9373 129.186 56.5972C128.835 56.2534 128.659 55.7091 128.659 54.9644V51.1133H129.562V54.9321C129.562 55.4155 129.671 55.7754 129.889 56.0117C130.111 56.2445 130.453 56.3608 130.915 56.3608C131.531 56.3608 131.98 56.1925 132.263 55.856C132.55 55.5158 132.693 54.9661 132.693 54.207V51.1133H133.584V57ZM139.294 51.1133H141.002V51.8062H139.294V55.2705C139.294 55.6214 139.376 55.8936 139.541 56.0869C139.709 56.2767 139.938 56.3716 140.229 56.3716C140.519 56.3716 140.791 56.3358 141.045 56.2642V56.9517C140.959 56.9946 140.819 57.0304 140.626 57.0591C140.433 57.0913 140.261 57.1074 140.11 57.1074C138.972 57.1074 138.402 56.5076 138.402 55.3081V51.8062H137.559V51.3765L138.402 51.0059L138.778 49.749H139.294V51.1133ZM142.447 51.5215C143.063 51.1849 143.725 51.0166 144.434 51.0166C145.143 51.0166 145.664 51.1742 145.997 51.4893C146.334 51.8008 146.502 52.2985 146.502 52.9824V57H145.847L145.669 56.1621H145.626C145.333 56.5309 145.039 56.7816 144.746 56.9141C144.456 57.043 144.092 57.1074 143.655 57.1074C143.072 57.1074 142.613 56.957 142.28 56.6562C141.947 56.3519 141.781 55.924 141.781 55.3726C141.781 54.1873 142.733 53.5643 144.638 53.5034L145.637 53.4712V53.106C145.637 52.6405 145.537 52.3003 145.336 52.0854C145.139 51.867 144.806 51.7578 144.337 51.7578C143.868 51.7578 143.329 51.9064 142.721 52.2036L142.447 51.5215ZM142.721 55.3833C142.721 55.702 142.817 55.9473 143.011 56.1191C143.204 56.2874 143.478 56.3716 143.833 56.3716C144.388 56.3716 144.823 56.2194 145.138 55.915C145.456 55.6071 145.616 55.181 145.616 54.6367V54.105L144.724 54.1426C144.015 54.1676 143.503 54.2786 143.188 54.4756C142.876 54.6689 142.721 54.9715 142.721 55.3833ZM151.035 51.0059C151.293 51.0059 151.528 51.0273 151.739 51.0703L151.615 51.8975C151.372 51.8438 151.157 51.8169 150.971 51.8169C150.491 51.8169 150.083 52.0103 149.746 52.397C149.41 52.7801 149.241 53.2617 149.241 53.8418V57H148.35V51.1133H149.085L149.188 52.2036H149.23C149.449 51.8169 149.712 51.5215 150.02 51.3174C150.332 51.1097 150.67 51.0059 151.035 51.0059ZM152.765 49.5181C152.765 49.3211 152.813 49.1743 152.91 49.0776C153.006 48.9774 153.132 48.9272 153.286 48.9272C153.44 48.9272 153.567 48.9774 153.667 49.0776C153.767 49.1779 153.817 49.3247 153.817 49.5181C153.817 49.7114 153.767 49.86 153.667 49.9639C153.567 50.0641 153.44 50.1143 153.286 50.1143C153.132 50.1143 153.006 50.0641 152.91 49.9639C152.813 49.86 152.765 49.7114 152.765 49.5181ZM153.731 51.1133V57.9023C153.731 59.0625 153.196 59.6426 152.125 59.6426C151.778 59.6426 151.502 59.5978 151.298 59.5083V58.7832C151.553 58.8548 151.809 58.8906 152.066 58.8906C152.582 58.8906 152.84 58.5827 152.84 57.9668V51.1133H153.731ZM158.109 57.1074C157.239 57.1074 156.551 56.8424 156.046 56.3125C155.545 55.779 155.294 55.0396 155.294 54.0942C155.294 53.1489 155.527 52.3988 155.993 51.8438C156.462 51.2852 157.078 51.0059 157.84 51.0059C158.607 51.0059 159.203 51.2511 159.629 51.7417C160.059 52.2179 160.273 52.8553 160.273 53.6538V54.2178H156.218C156.236 54.9053 156.41 55.4299 156.739 55.7915C157.069 56.1496 157.543 56.3286 158.163 56.3286C158.782 56.3286 159.4 56.1961 160.016 55.9312V56.7261C159.704 56.8621 159.405 56.9588 159.119 57.0161C158.836 57.077 158.499 57.1074 158.109 57.1074ZM159.317 53.4927C159.317 52.9341 159.192 52.5062 158.941 52.209C158.691 51.9082 158.331 51.7578 157.862 51.7578C157.396 51.7578 157.022 51.91 156.739 52.2144C156.456 52.5187 156.29 52.9448 156.24 53.4927H159.317ZM162.755 51.1133H164.463V51.8062H162.755V55.2705C162.755 55.6214 162.837 55.8936 163.002 56.0869C163.17 56.2767 163.399 56.3716 163.689 56.3716C163.979 56.3716 164.252 56.3358 164.506 56.2642V56.9517C164.42 56.9946 164.28 57.0304 164.087 57.0591C163.894 57.0913 163.722 57.1074 163.571 57.1074C162.433 57.1074 161.863 56.5076 161.863 55.3081V51.8062H161.02V51.3765L161.863 51.0059L162.239 49.749H162.755V51.1133ZM165.908 51.5215C166.524 51.1849 167.186 51.0166 167.895 51.0166C168.604 51.0166 169.125 51.1742 169.458 51.4893C169.795 51.8008 169.963 52.2985 169.963 52.9824V57H169.308L169.13 56.1621H169.087C168.794 56.5309 168.5 56.7816 168.207 56.9141C167.917 57.043 167.553 57.1074 167.116 57.1074C166.533 57.1074 166.074 56.957 165.741 56.6562C165.408 56.3519 165.242 55.924 165.242 55.3726C165.242 54.1873 166.194 53.5643 168.099 53.5034L169.098 53.4712V53.106C169.098 52.6405 168.998 52.3003 168.797 52.0854C168.6 51.867 168.267 51.7578 167.798 51.7578C167.329 51.7578 166.79 51.9064 166.182 52.2036L165.908 51.5215ZM166.182 55.3833C166.182 55.702 166.278 55.9473 166.472 56.1191C166.665 56.2874 166.939 56.3716 167.293 56.3716C167.848 56.3716 168.284 56.2194 168.599 55.915C168.917 55.6071 169.077 55.181 169.077 54.6367V54.105L168.185 54.1426C167.476 54.1676 166.964 54.2786 166.649 54.4756C166.337 54.6689 166.182 54.9715 166.182 55.3833ZM179.518 57H178.793L178.675 56.2104H178.626C178.211 56.8084 177.606 57.1074 176.811 57.1074C176.02 57.1074 175.409 56.8442 174.979 56.3179C174.553 55.7879 174.34 55.0396 174.34 54.0728C174.34 53.1024 174.555 52.3486 174.985 51.8115C175.415 51.2744 176.02 51.0059 176.8 51.0059C177.584 51.0059 178.19 51.2959 178.616 51.876H178.686L178.648 51.4517L178.626 51.0381V48.6426H179.518V57ZM178.626 54.2607V54.0728C178.626 53.2384 178.487 52.644 178.208 52.2896C177.939 51.9351 177.497 51.7578 176.881 51.7578C176.358 51.7578 175.957 51.9601 175.678 52.3647C175.402 52.7658 175.264 53.3405 175.264 54.0889C175.264 54.8372 175.402 55.403 175.678 55.7861C175.953 56.1693 176.358 56.3608 176.892 56.3608C177.5 56.3608 177.941 56.1961 178.213 55.8667C178.489 55.5337 178.626 54.9984 178.626 54.2607ZM183.901 57.1074C183.031 57.1074 182.343 56.8424 181.838 56.3125C181.337 55.779 181.086 55.0396 181.086 54.0942C181.086 53.1489 181.319 52.3988 181.785 51.8438C182.254 51.2852 182.87 51.0059 183.632 51.0059C184.399 51.0059 184.995 51.2511 185.421 51.7417C185.851 52.2179 186.065 52.8553 186.065 53.6538V54.2178H182.01C182.028 54.9053 182.202 55.4299 182.531 55.7915C182.861 56.1496 183.335 56.3286 183.955 56.3286C184.574 56.3286 185.192 56.1961 185.808 55.9312V56.7261C185.496 56.8621 185.197 56.9588 184.911 57.0161C184.628 57.077 184.291 57.1074 183.901 57.1074ZM185.109 53.4927C185.109 52.9341 184.984 52.5062 184.733 52.209C184.483 51.9082 184.123 51.7578 183.654 51.7578C183.188 51.7578 182.814 51.91 182.531 52.2144C182.248 52.5187 182.082 52.9448 182.032 53.4927H185.109ZM192.801 57.1074C191.949 57.1074 191.288 56.846 190.819 56.3232C190.353 55.8005 190.121 55.0521 190.121 54.0781C190.121 53.1042 190.357 52.3486 190.83 51.8115C191.306 51.2744 191.983 51.0059 192.86 51.0059C193.132 51.0059 193.408 51.0363 193.687 51.0972C193.97 51.1545 194.199 51.2261 194.375 51.312L194.101 52.0693C193.9 51.9906 193.689 51.9261 193.467 51.876C193.245 51.8258 193.035 51.8008 192.838 51.8008C191.642 51.8008 191.044 52.5617 191.044 54.0835C191.044 54.8104 191.191 55.3672 191.485 55.7539C191.778 56.137 192.21 56.3286 192.779 56.3286C193.266 56.3286 193.769 56.223 194.289 56.0117V56.8013C193.888 57.0054 193.392 57.1074 192.801 57.1074ZM198.365 51.0059C198.623 51.0059 198.858 51.0273 199.069 51.0703L198.945 51.8975C198.702 51.8438 198.487 51.8169 198.301 51.8169C197.821 51.8169 197.413 52.0103 197.076 52.397C196.74 52.7801 196.571 53.2617 196.571 53.8418V57H195.68V51.1133H196.416L196.518 52.2036H196.561C196.779 51.8169 197.042 51.5215 197.35 51.3174C197.662 51.1097 198 51.0059 198.365 51.0059ZM203.865 48.5728V48.6855C203.704 48.9219 203.468 49.2101 203.156 49.5503C202.845 49.8905 202.576 50.1519 202.351 50.3345H201.754V50.2002C201.926 49.9782 202.111 49.7096 202.308 49.3945C202.508 49.0794 202.666 48.8055 202.78 48.5728H203.865ZM202.657 57.1074C201.783 57.1074 201.096 56.8424 200.594 56.3125C200.093 55.779 199.842 55.0413 199.842 54.0996C199.842 53.1579 200.075 52.4077 200.541 51.8491C201.01 51.2869 201.624 51.0059 202.383 51.0059C203.146 51.0059 203.742 51.2476 204.171 51.731C204.605 52.2144 204.821 52.8553 204.821 53.6538V54.2178H200.766C200.784 54.9053 200.958 55.4299 201.287 55.7915C201.617 56.1496 202.089 56.3286 202.705 56.3286C203.325 56.3286 203.946 56.1961 204.569 55.9312V56.7261C204.25 56.8657 203.949 56.9642 203.667 57.0215C203.384 57.0788 203.047 57.1074 202.657 57.1074ZM203.865 53.4927C203.865 52.9341 203.74 52.5044 203.489 52.2036C203.239 51.9028 202.879 51.7524 202.41 51.7524C201.944 51.7524 201.57 51.9064 201.287 52.2144C201.004 52.5187 200.838 52.9448 200.788 53.4927H203.865ZM211.197 57H210.472L210.354 56.2104H210.305C209.89 56.8084 209.285 57.1074 208.49 57.1074C207.698 57.1074 207.088 56.8442 206.658 56.3179C206.232 55.7879 206.019 55.0396 206.019 54.0728C206.019 53.1024 206.234 52.3486 206.664 51.8115C207.093 51.2744 207.698 51.0059 208.479 51.0059C209.263 51.0059 209.868 51.2959 210.294 51.876H210.364L210.327 51.4517L210.305 51.0381V48.6426H211.197V57ZM210.305 54.2607V54.0728C210.305 53.2384 210.166 52.644 209.886 52.2896C209.618 51.9351 209.175 51.7578 208.56 51.7578C208.037 51.7578 207.636 51.9601 207.356 52.3647C207.081 52.7658 206.943 53.3405 206.943 54.0889C206.943 54.8372 207.081 55.403 207.356 55.7861C207.632 56.1693 208.037 56.3608 208.57 56.3608C209.179 56.3608 209.619 56.1961 209.892 55.8667C210.167 55.5337 210.305 54.9984 210.305 54.2607ZM213.018 49.5181C213.018 49.3211 213.066 49.1743 213.163 49.0776C213.259 48.9774 213.385 48.9272 213.539 48.9272C213.693 48.9272 213.82 48.9774 213.92 49.0776C214.02 49.1779 214.07 49.3247 214.07 49.5181C214.07 49.7114 214.02 49.86 213.92 49.9639C213.82 50.0641 213.693 50.1143 213.539 50.1143C213.385 50.1143 213.259 50.0641 213.163 49.9639C213.066 49.86 213.018 49.7114 213.018 49.5181ZM213.984 57H213.093V51.1133H213.984V57ZM216.831 51.1133H218.539V51.8062H216.831V55.2705C216.831 55.6214 216.913 55.8936 217.078 56.0869C217.246 56.2767 217.476 56.3716 217.766 56.3716C218.056 56.3716 218.328 56.3358 218.582 56.2642V56.9517C218.496 56.9946 218.356 57.0304 218.163 57.0591C217.97 57.0913 217.798 57.1074 217.647 57.1074C216.509 57.1074 215.939 56.5076 215.939 55.3081V51.8062H215.096V51.3765L215.939 51.0059L216.315 49.749H216.831V51.1133ZM219.431 54.0513C219.431 53.0916 219.669 52.3451 220.145 51.8115C220.625 51.2744 221.284 51.0059 222.122 51.0059C222.963 51.0059 223.624 51.2798 224.104 51.8276C224.594 52.3719 224.839 53.1185 224.839 54.0674C224.839 55.0163 224.598 55.7611 224.114 56.3018C223.631 56.8389 222.963 57.1074 222.111 57.1074C222.097 57.1074 222.082 57.1074 222.068 57.1074C221.291 57.1074 220.657 56.8317 220.167 56.2803C219.676 55.7288 219.431 55.0109 219.431 54.1265C219.431 54.1014 219.431 54.0763 219.431 54.0513ZM222.122 51.7686C220.944 51.7686 220.354 52.5295 220.354 54.0513C220.354 54.8032 220.505 55.3761 220.806 55.77C221.11 56.1639 221.552 56.3608 222.132 56.3608C222.716 56.3608 223.158 56.1657 223.459 55.7754C223.763 55.3815 223.916 54.8086 223.916 54.0566C223.916 53.3047 223.763 52.7354 223.459 52.3486C223.158 51.9619 222.712 51.7686 222.122 51.7686ZM230.162 51.9189C230.592 51.3102 231.201 51.0059 231.988 51.0059C232.78 51.0059 233.388 51.2726 233.814 51.8062C234.241 52.3397 234.454 53.0898 234.454 54.0566C234.454 55.0234 234.237 55.7736 233.804 56.3071C233.374 56.8407 232.765 57.1074 231.978 57.1074C231.19 57.1074 230.585 56.8192 230.162 56.2427H230.098C230.141 56.5864 230.162 56.9123 230.162 57.2202V59.6426H229.271V51.1133H229.996L230.119 51.9189H230.162ZM230.162 54.0513C230.162 54.8748 230.3 55.4674 230.576 55.8291C230.851 56.1836 231.294 56.3608 231.902 56.3608C232.414 56.3608 232.812 56.1567 233.095 55.7485C233.381 55.3368 233.524 54.7674 233.524 54.0405C233.524 53.3101 233.381 52.7497 233.095 52.3594C232.812 51.9655 232.407 51.7686 231.881 51.7686C231.276 51.7686 230.839 51.9351 230.57 52.2681C230.302 52.6011 230.166 53.1292 230.162 53.8525V54.0513ZM236.237 51.5215C236.853 51.1849 237.515 51.0166 238.224 51.0166C238.933 51.0166 239.454 51.1742 239.787 51.4893C240.124 51.8008 240.292 52.2985 240.292 52.9824V57H239.637L239.459 56.1621H239.417C239.123 56.5309 238.829 56.7816 238.536 56.9141C238.246 57.043 237.882 57.1074 237.445 57.1074C236.862 57.1074 236.403 56.957 236.07 56.6562C235.737 56.3519 235.571 55.924 235.571 55.3726C235.571 54.1873 236.523 53.5643 238.428 53.5034L239.427 53.4712V53.106C239.427 52.6405 239.327 52.3003 239.126 52.0854C238.93 51.867 238.597 51.7578 238.127 51.7578C237.658 51.7578 237.119 51.9064 236.511 52.2036L236.237 51.5215ZM236.511 55.3833C236.511 55.702 236.607 55.9473 236.801 56.1191C236.994 56.2874 237.268 56.3716 237.623 56.3716C238.178 56.3716 238.613 56.2194 238.928 55.915C239.246 55.6071 239.406 55.181 239.406 54.6367V54.105L238.514 54.1426C237.805 54.1676 237.293 54.2786 236.978 54.4756C236.667 54.6689 236.511 54.9715 236.511 55.3833ZM244.825 51.0059C245.083 51.0059 245.318 51.0273 245.529 51.0703L245.405 51.8975C245.162 51.8438 244.947 51.8169 244.761 51.8169C244.281 51.8169 243.873 52.0103 243.536 52.397C243.2 52.7801 243.031 53.2617 243.031 53.8418V57H242.14V51.1133H242.875L242.978 52.2036H243.021C243.239 51.8169 243.502 51.5215 243.81 51.3174C244.122 51.1097 244.46 51.0059 244.825 51.0059ZM246.85 51.5215C247.466 51.1849 248.128 51.0166 248.837 51.0166C249.546 51.0166 250.067 51.1742 250.4 51.4893C250.737 51.8008 250.905 52.2985 250.905 52.9824V57H250.25L250.073 56.1621H250.03C249.736 56.5309 249.443 56.7816 249.149 56.9141C248.859 57.043 248.495 57.1074 248.059 57.1074C247.475 57.1074 247.017 56.957 246.684 56.6562C246.351 56.3519 246.184 55.924 246.184 55.3726C246.184 54.1873 247.137 53.5643 249.042 53.5034L250.041 53.4712V53.106C250.041 52.6405 249.94 52.3003 249.74 52.0854C249.543 51.867 249.21 51.7578 248.741 51.7578C248.272 51.7578 247.733 51.9064 247.124 52.2036L246.85 51.5215ZM247.124 55.3833C247.124 55.702 247.221 55.9473 247.414 56.1191C247.607 56.2874 247.881 56.3716 248.236 56.3716C248.791 56.3716 249.226 56.2194 249.541 55.915C249.86 55.6071 250.019 55.181 250.019 54.6367V54.105L249.127 54.1426C248.418 54.1676 247.906 54.2786 247.591 54.4756C247.28 54.6689 247.124 54.9715 247.124 55.3833ZM3.27637 72H2.23438L0 66.1133H0.956055L2.22363 69.6045C2.51725 70.4424 2.68555 70.9723 2.72852 71.1943H2.77148C2.80729 71.0081 2.92725 70.6268 3.13135 70.0503C3.33545 69.4702 3.8099 68.1579 4.55469 66.1133H5.51074L3.27637 72ZM8.94287 72.1074C8.07275 72.1074 7.38525 71.8424 6.88037 71.3125C6.37907 70.779 6.12842 70.0396 6.12842 69.0942C6.12842 68.1489 6.36117 67.3988 6.82666 66.8438C7.29574 66.2852 7.91162 66.0059 8.67432 66.0059C9.44059 66.0059 10.0368 66.2511 10.4629 66.7417C10.8926 67.2179 11.1074 67.8553 11.1074 68.6538V69.2178H7.05225C7.07015 69.9053 7.24382 70.4299 7.57324 70.7915C7.90267 71.1496 8.37712 71.3286 8.99658 71.3286C9.61605 71.3286 10.2337 71.1961 10.8496 70.9312V71.7261C10.5381 71.8621 10.2391 71.9588 9.95264 72.0161C9.66976 72.077 9.33317 72.1074 8.94287 72.1074ZM10.1514 68.4927C10.1514 67.9341 10.026 67.5062 9.77539 67.209C9.52474 66.9082 9.16488 66.7578 8.6958 66.7578C8.23031 66.7578 7.85612 66.91 7.57324 67.2144C7.29036 67.5187 7.12386 67.9448 7.07373 68.4927H10.1514ZM15.3184 66.0059C15.5762 66.0059 15.8107 66.0273 16.022 66.0703L15.8984 66.8975C15.6549 66.8438 15.4401 66.8169 15.2539 66.8169C14.7741 66.8169 14.3659 67.0103 14.0293 67.397C13.6927 67.7801 13.5244 68.2617 13.5244 68.8418V72H12.6328V66.1133H13.3687L13.4707 67.2036H13.5137C13.7321 66.8169 13.9953 66.5215 14.3032 66.3174C14.6147 66.1097 14.9531 66.0059 15.3184 66.0059ZM17.0479 64.5181C17.0479 64.3211 17.0962 64.1743 17.1929 64.0776C17.2896 63.9774 17.4149 63.9272 17.5688 63.9272C17.7228 63.9272 17.8499 63.9774 17.9502 64.0776C18.0505 64.1779 18.1006 64.3247 18.1006 64.5181C18.1006 64.7114 18.0505 64.86 17.9502 64.9639C17.8499 65.0641 17.7228 65.1143 17.5688 65.1143C17.4149 65.1143 17.2896 65.0641 17.1929 64.9639C17.0962 64.86 17.0479 64.7114 17.0479 64.5181ZM18.0146 72H17.123V66.1133H18.0146V72ZM20.1685 65.7534C20.1685 64.3068 20.8005 63.5835 22.0645 63.5835C22.3688 63.5835 22.734 63.6462 23.1602 63.7715L22.9292 64.4858C22.5926 64.3748 22.299 64.3193 22.0483 64.3193C21.7118 64.3193 21.4629 64.4321 21.3018 64.6577C21.1406 64.8833 21.0601 65.2414 21.0601 65.7319V66.1133H22.5586V66.8062H21.0601V72H20.1685V66.8062H19.1157V66.4033L20.1685 66.0811V65.7534ZM23.5576 64.5181C23.5576 64.3211 23.606 64.1743 23.7026 64.0776C23.7993 63.9774 23.9246 63.9272 24.0786 63.9272C24.2326 63.9272 24.3597 63.9774 24.46 64.0776C24.5602 64.1779 24.6104 64.3247 24.6104 64.5181C24.6104 64.7114 24.5602 64.86 24.46 64.9639C24.3597 65.0641 24.2326 65.1143 24.0786 65.1143C23.9246 65.1143 23.7993 65.0641 23.7026 64.9639C23.606 64.86 23.5576 64.7114 23.5576 64.5181ZM24.5244 72H23.6328V66.1133H24.5244V72ZM28.7676 72.1074C27.9154 72.1074 27.2547 71.846 26.7856 71.3232C26.3201 70.8005 26.0874 70.0521 26.0874 69.0781C26.0874 68.1042 26.3237 67.3486 26.7964 66.8115C27.2726 66.2744 27.9494 66.0059 28.8267 66.0059C29.0988 66.0059 29.3745 66.0363 29.6538 66.0972C29.9367 66.1545 30.1659 66.2261 30.3413 66.312L30.0674 67.0693C29.8669 66.9906 29.6556 66.9261 29.4336 66.876C29.2116 66.8258 29.0021 66.8008 28.8052 66.8008C27.6092 66.8008 27.0112 67.5617 27.0112 69.0835C27.0112 69.8104 27.158 70.3672 27.4517 70.7539C27.7453 71.137 28.1768 71.3286 28.7461 71.3286C29.2331 71.3286 29.7362 71.223 30.2554 71.0117V71.8013C29.8543 72.0054 29.3584 72.1074 28.7676 72.1074ZM31.8667 66.5215C32.4826 66.1849 33.145 66.0166 33.854 66.0166C34.563 66.0166 35.084 66.1742 35.417 66.4893C35.7536 66.8008 35.9219 67.2985 35.9219 67.9824V72H35.2666L35.0894 71.1621H35.0464C34.7528 71.5309 34.4591 71.7816 34.1655 71.9141C33.8755 72.043 33.512 72.1074 33.0752 72.1074C32.4915 72.1074 32.0332 71.957 31.7002 71.6562C31.3672 71.3519 31.2007 70.924 31.2007 70.3726C31.2007 69.1873 32.1532 68.5643 34.0581 68.5034L35.0571 68.4712V68.106C35.0571 67.6405 34.9569 67.3003 34.7563 67.0854C34.5594 66.867 34.2264 66.7578 33.7573 66.7578C33.2882 66.7578 32.7493 66.9064 32.1406 67.2036L31.8667 66.5215ZM32.1406 70.3833C32.1406 70.702 32.2373 70.9473 32.4307 71.1191C32.624 71.2874 32.8979 71.3716 33.2524 71.3716C33.8075 71.3716 34.2425 71.2194 34.5576 70.915C34.8763 70.6071 35.0356 70.181 35.0356 69.6367V69.105L34.144 69.1426C33.4351 69.1676 32.923 69.2786 32.6079 69.4756C32.2964 69.6689 32.1406 69.9715 32.1406 70.3833ZM40.4551 66.0059C40.7129 66.0059 40.9474 66.0273 41.1587 66.0703L41.0352 66.8975C40.7917 66.8438 40.5768 66.8169 40.3906 66.8169C39.9108 66.8169 39.5026 67.0103 39.166 67.397C38.8294 67.7801 38.6611 68.2617 38.6611 68.8418V72H37.7695V66.1133H38.5054L38.6074 67.2036H38.6504C38.8688 66.8169 39.132 66.5215 39.4399 66.3174C39.7515 66.1097 40.0898 66.0059 40.4551 66.0059ZM46.605 71.3716C47.5718 71.3716 48.0552 71.0708 48.0552 70.4692C48.0552 70.2401 47.9549 70.0449 47.7544 69.8838C47.5575 69.7191 47.1707 69.5257 46.5942 69.3037C46.0428 69.0996 45.6507 68.9206 45.418 68.7666C45.1888 68.6126 45.0187 68.4408 44.9077 68.251C44.7967 68.0612 44.7412 67.8302 44.7412 67.5581C44.7412 67.0819 44.9364 66.7041 45.3267 66.4248C45.717 66.1455 46.2397 66.0059 46.895 66.0059C47.5503 66.0059 48.1823 66.1348 48.791 66.3926L48.4741 67.1177C47.8869 66.8778 47.3677 66.7578 46.9165 66.7578C46.4689 66.7578 46.1359 66.8223 45.9175 66.9512C45.6991 67.0801 45.5898 67.2627 45.5898 67.499C45.5898 67.6566 45.6292 67.7909 45.708 67.9019C45.7868 68.0129 45.9157 68.1185 46.0947 68.2188C46.2738 68.319 46.6193 68.464 47.1313 68.6538C47.8296 68.908 48.3005 69.1641 48.5439 69.4219C48.791 69.6797 48.9146 70.0037 48.9146 70.394C48.9146 70.9419 48.7087 71.3644 48.2969 71.6616C47.8887 71.9588 47.305 72.1074 46.5459 72.1074C45.7904 72.1074 45.1942 71.9839 44.7573 71.7368V70.9097C45.366 71.2176 45.9819 71.3716 46.605 71.3716ZM55.2202 72H54.4844L54.3555 71.2104H54.3071C54.1245 71.5005 53.8721 71.7225 53.5498 71.8765C53.2275 72.0304 52.8569 72.1074 52.438 72.1074C51.7111 72.1074 51.1722 71.9373 50.8213 71.5972C50.4704 71.2534 50.2949 70.7091 50.2949 69.9644V66.1133H51.1973V69.9321C51.1973 70.4155 51.3065 70.7754 51.5249 71.0117C51.7469 71.2445 52.0889 71.3608 52.5508 71.3608C53.1667 71.3608 53.616 71.1925 53.8989 70.856C54.1854 70.5158 54.3286 69.9661 54.3286 69.207V66.1133H55.2202V72ZM62.3262 72.1074C61.474 72.1074 60.8133 71.846 60.3442 71.3232C59.8787 70.8005 59.646 70.0521 59.646 69.0781C59.646 68.1042 59.8823 67.3486 60.355 66.8115C60.8312 66.2744 61.508 66.0059 62.3853 66.0059C62.6574 66.0059 62.9331 66.0363 63.2124 66.0972C63.4953 66.1545 63.7244 66.2261 63.8999 66.312L63.626 67.0693C63.4255 66.9906 63.2142 66.9261 62.9922 66.876C62.7702 66.8258 62.5607 66.8008 62.3638 66.8008C61.1678 66.8008 60.5698 67.5617 60.5698 69.0835C60.5698 69.8104 60.7166 70.3672 61.0103 70.7539C61.3039 71.137 61.7354 71.3286 62.3047 71.3286C62.7917 71.3286 63.2948 71.223 63.814 71.0117V71.8013C63.4129 72.0054 62.917 72.1074 62.3262 72.1074ZM70.0659 72H69.3301L69.2012 71.2104H69.1528C68.9702 71.5005 68.7178 71.7225 68.3955 71.8765C68.0732 72.0304 67.7026 72.1074 67.2837 72.1074C66.5568 72.1074 66.0179 71.9373 65.667 71.5972C65.3161 71.2534 65.1406 70.7091 65.1406 69.9644V66.1133H66.043V69.9321C66.043 70.4155 66.1522 70.7754 66.3706 71.0117C66.5926 71.2445 66.9346 71.3608 67.3965 71.3608C68.0124 71.3608 68.4618 71.1925 68.7446 70.856C69.0311 70.5158 69.1743 69.9661 69.1743 69.207V66.1133H70.0659V72ZM74.4487 72.1074C73.5786 72.1074 72.8911 71.8424 72.3862 71.3125C71.8849 70.779 71.6343 70.0396 71.6343 69.0942C71.6343 68.1489 71.867 67.3988 72.3325 66.8438C72.8016 66.2852 73.4175 66.0059 74.1802 66.0059C74.9465 66.0059 75.5426 66.2511 75.9688 66.7417C76.3984 67.2179 76.6133 67.8553 76.6133 68.6538V69.2178H72.5581C72.576 69.9053 72.7497 70.4299 73.0791 70.7915C73.4085 71.1496 73.883 71.3286 74.5024 71.3286C75.1219 71.3286 75.7396 71.1961 76.3555 70.9312V71.7261C76.0439 71.8621 75.745 71.9588 75.4585 72.0161C75.1756 72.077 74.839 72.1074 74.4487 72.1074ZM75.6572 68.4927C75.6572 67.9341 75.5319 67.5062 75.2812 67.209C75.0306 66.9082 74.6707 66.7578 74.2017 66.7578C73.7362 66.7578 73.362 66.91 73.0791 67.2144C72.7962 67.5187 72.6297 67.9448 72.5796 68.4927H75.6572ZM80.9209 66.0059C81.637 66.0059 82.1724 66.1795 82.5269 66.5269C82.8813 66.8742 83.0586 67.4185 83.0586 68.1597V72H82.167V68.1919C82.167 67.7085 82.056 67.3504 81.834 67.1177C81.6156 66.8849 81.2754 66.7686 80.8135 66.7686C80.194 66.7686 79.741 66.9351 79.4546 67.2681C79.1717 67.6011 79.0303 68.1489 79.0303 68.9116V72H78.1387V66.1133H78.8638L79.0088 66.9189H79.0518C79.2344 66.6289 79.4886 66.4051 79.8145 66.2476C80.1439 66.0864 80.5127 66.0059 80.9209 66.0059ZM85.8516 66.1133H87.5596V66.8062H85.8516V70.2705C85.8516 70.6214 85.9339 70.8936 86.0986 71.0869C86.2669 71.2767 86.4961 71.3716 86.7861 71.3716C87.0762 71.3716 87.3483 71.3358 87.6025 71.2642V71.9517C87.5166 71.9946 87.377 72.0304 87.1836 72.0591C86.9902 72.0913 86.8184 72.1074 86.668 72.1074C85.5293 72.1074 84.96 71.5076 84.96 70.3081V66.8062H84.1167V66.3765L84.96 66.0059L85.3359 64.749H85.8516V66.1133ZM89.0044 66.5215C89.6203 66.1849 90.2827 66.0166 90.9917 66.0166C91.7007 66.0166 92.2217 66.1742 92.5547 66.4893C92.8913 66.8008 93.0596 67.2985 93.0596 67.9824V72H92.4043L92.2271 71.1621H92.1841C91.8905 71.5309 91.5968 71.7816 91.3032 71.9141C91.0132 72.043 90.6497 72.1074 90.2129 72.1074C89.6292 72.1074 89.1709 71.957 88.8379 71.6562C88.5049 71.3519 88.3384 70.924 88.3384 70.3726C88.3384 69.1873 89.2909 68.5643 91.1958 68.5034L92.1948 68.4712V68.106C92.1948 67.6405 92.0946 67.3003 91.894 67.0854C91.6971 66.867 91.3641 66.7578 90.895 66.7578C90.4259 66.7578 89.887 66.9064 89.2783 67.2036L89.0044 66.5215ZM89.2783 70.3833C89.2783 70.702 89.375 70.9473 89.5684 71.1191C89.7617 71.2874 90.0356 71.3716 90.3901 71.3716C90.9451 71.3716 91.3802 71.2194 91.6953 70.915C92.014 70.6071 92.1733 70.181 92.1733 69.6367V69.105L91.2817 69.1426C90.5728 69.1676 90.0607 69.2786 89.7456 69.4756C89.4341 69.6689 89.2783 69.9715 89.2783 70.3833ZM98.6562 63.6426V65.6729C98.6562 66.1061 98.6419 66.5143 98.6133 66.8975H98.6562C99.0716 66.3102 99.6768 66.0166 100.472 66.0166C101.27 66.0166 101.881 66.2816 102.303 66.8115C102.733 67.3379 102.948 68.0863 102.948 69.0566C102.948 70.0234 102.731 70.7736 102.298 71.3071C101.868 71.8407 101.259 72.1074 100.472 72.1074C99.6839 72.1074 99.0788 71.8192 98.6562 71.2427H98.5918L98.4038 72H97.7646V63.6426H98.6562ZM102.019 69.0352C102.019 68.2725 101.884 67.7049 101.616 67.3325C101.347 66.9565 100.921 66.7686 100.337 66.7686C99.7537 66.7686 99.3276 66.9422 99.0591 67.2896C98.7905 67.6369 98.6562 68.2241 98.6562 69.0513C98.6562 69.8748 98.7941 70.4674 99.0698 70.8291C99.3455 71.1836 99.7878 71.3608 100.396 71.3608C100.937 71.3608 101.342 71.1639 101.61 70.77C101.882 70.3761 102.019 69.7979 102.019 69.0352ZM104.731 66.5215C105.347 66.1849 106.009 66.0166 106.718 66.0166C107.427 66.0166 107.948 66.1742 108.281 66.4893C108.618 66.8008 108.786 67.2985 108.786 67.9824V72H108.131L107.954 71.1621H107.911C107.617 71.5309 107.323 71.7816 107.03 71.9141C106.74 72.043 106.376 72.1074 105.939 72.1074C105.356 72.1074 104.897 71.957 104.564 71.6562C104.231 71.3519 104.065 70.924 104.065 70.3726C104.065 69.1873 105.017 68.5643 106.922 68.5034L107.921 68.4712V68.106C107.921 67.6405 107.821 67.3003 107.621 67.0854C107.424 66.867 107.091 66.7578 106.622 66.7578C106.153 66.7578 105.614 66.9064 105.005 67.2036L104.731 66.5215ZM105.005 70.3833C105.005 70.702 105.102 70.9473 105.295 71.1191C105.488 71.2874 105.762 71.3716 106.117 71.3716C106.672 71.3716 107.107 71.2194 107.422 70.915C107.741 70.6071 107.9 70.181 107.9 69.6367V69.105L107.008 69.1426C106.299 69.1676 105.787 69.2786 105.472 69.4756C105.161 69.6689 105.005 69.9715 105.005 70.3833ZM113.416 66.0059C114.132 66.0059 114.667 66.1795 115.022 66.5269C115.376 66.8742 115.554 67.4185 115.554 68.1597V72H114.662V68.1919C114.662 67.7085 114.551 67.3504 114.329 67.1177C114.111 66.8849 113.771 66.7686 113.309 66.7686C112.689 66.7686 112.236 66.9351 111.95 67.2681C111.667 67.6011 111.525 68.1489 111.525 68.9116V72H110.634V66.1133H111.359L111.504 66.9189H111.547C111.729 66.6289 111.984 66.4051 112.31 66.2476C112.639 66.0864 113.008 66.0059 113.416 66.0059ZM119.743 72.1074C118.891 72.1074 118.23 71.846 117.761 71.3232C117.296 70.8005 117.063 70.0521 117.063 69.0781C117.063 68.1042 117.299 67.3486 117.772 66.8115C118.248 66.2744 118.925 66.0059 119.802 66.0059C120.074 66.0059 120.35 66.0363 120.629 66.0972C120.912 66.1545 121.141 66.2261 121.317 66.312L121.043 67.0693C120.842 66.9906 120.631 66.9261 120.409 66.876C120.187 66.8258 119.978 66.8008 119.781 66.8008C118.585 66.8008 117.987 67.5617 117.987 69.0835C117.987 69.8104 118.134 70.3672 118.427 70.7539C118.721 71.137 119.152 71.3286 119.722 71.3286C120.209 71.3286 120.712 71.223 121.231 71.0117V71.8013C120.83 72.0054 120.334 72.1074 119.743 72.1074ZM122.842 66.5215C123.458 66.1849 124.121 66.0166 124.83 66.0166C125.539 66.0166 126.06 66.1742 126.393 66.4893C126.729 66.8008 126.897 67.2985 126.897 67.9824V72H126.242L126.065 71.1621H126.022C125.728 71.5309 125.435 71.7816 125.141 71.9141C124.851 72.043 124.488 72.1074 124.051 72.1074C123.467 72.1074 123.009 71.957 122.676 71.6562C122.343 71.3519 122.176 70.924 122.176 70.3726C122.176 69.1873 123.129 68.5643 125.034 68.5034L126.033 68.4712V68.106C126.033 67.6405 125.932 67.3003 125.732 67.0854C125.535 66.867 125.202 66.7578 124.733 66.7578C124.264 66.7578 123.725 66.9064 123.116 67.2036L122.842 66.5215ZM123.116 70.3833C123.116 70.702 123.213 70.9473 123.406 71.1191C123.6 71.2874 123.874 71.3716 124.228 71.3716C124.783 71.3716 125.218 71.2194 125.533 70.915C125.852 70.6071 126.011 70.181 126.011 69.6367V69.105L125.12 69.1426C124.411 69.1676 123.899 69.2786 123.583 69.4756C123.272 69.6689 123.116 69.9715 123.116 70.3833ZM131.431 66.0059C131.688 66.0059 131.923 66.0273 132.134 66.0703L132.011 66.8975C131.767 66.8438 131.552 66.8169 131.366 66.8169C130.886 66.8169 130.478 67.0103 130.142 67.397C129.805 67.7801 129.637 68.2617 129.637 68.8418V72H128.745V66.1133H129.481L129.583 67.2036H129.626C129.844 66.8169 130.108 66.5215 130.416 66.3174C130.727 66.1097 131.065 66.0059 131.431 66.0059ZM133.16 64.5181C133.16 64.3211 133.208 64.1743 133.305 64.0776C133.402 63.9774 133.527 63.9272 133.681 63.9272C133.835 63.9272 133.962 63.9774 134.062 64.0776C134.163 64.1779 134.213 64.3247 134.213 64.5181C134.213 64.7114 134.163 64.86 134.062 64.9639C133.962 65.0641 133.835 65.1143 133.681 65.1143C133.527 65.1143 133.402 65.0641 133.305 64.9639C133.208 64.86 133.16 64.7114 133.16 64.5181ZM134.127 72H133.235V66.1133H134.127V72ZM136.238 66.5215C136.854 66.1849 137.516 66.0166 138.225 66.0166C138.934 66.0166 139.455 66.1742 139.788 66.4893C140.125 66.8008 140.293 67.2985 140.293 67.9824V72H139.638L139.46 71.1621H139.417C139.124 71.5309 138.83 71.7816 138.537 71.9141C138.247 72.043 137.883 72.1074 137.446 72.1074C136.863 72.1074 136.404 71.957 136.071 71.6562C135.738 71.3519 135.572 70.924 135.572 70.3726C135.572 69.1873 136.524 68.5643 138.429 68.5034L139.428 68.4712V68.106C139.428 67.6405 139.328 67.3003 139.127 67.0854C138.931 66.867 138.597 66.7578 138.128 66.7578C137.659 66.7578 137.12 66.9064 136.512 67.2036L136.238 66.5215ZM136.512 70.3833C136.512 70.702 136.608 70.9473 136.802 71.1191C136.995 71.2874 137.269 71.3716 137.624 71.3716C138.179 71.3716 138.614 71.2194 138.929 70.915C139.247 70.6071 139.407 70.181 139.407 69.6367V69.105L138.515 69.1426C137.806 69.1676 137.294 69.2786 136.979 69.4756C136.667 69.6689 136.512 69.9715 136.512 70.3833ZM147.485 72.1074C146.615 72.1074 145.927 71.8424 145.422 71.3125C144.921 70.779 144.67 70.0396 144.67 69.0942C144.67 68.1489 144.903 67.3988 145.369 66.8438C145.838 66.2852 146.454 66.0059 147.216 66.0059C147.983 66.0059 148.579 66.2511 149.005 66.7417C149.435 67.2179 149.649 67.8553 149.649 68.6538V69.2178H145.594C145.612 69.9053 145.786 70.4299 146.115 70.7915C146.445 71.1496 146.919 71.3286 147.539 71.3286C148.158 71.3286 148.776 71.1961 149.392 70.9312V71.7261C149.08 71.8621 148.781 71.9588 148.495 72.0161C148.212 72.077 147.875 72.1074 147.485 72.1074ZM148.693 68.4927C148.693 67.9341 148.568 67.5062 148.317 67.209C148.067 66.9082 147.707 66.7578 147.238 66.7578C146.772 66.7578 146.398 66.91 146.115 67.2144C145.832 67.5187 145.666 67.9448 145.616 68.4927H148.693ZM153.957 66.0059C154.673 66.0059 155.208 66.1795 155.563 66.5269C155.917 66.8742 156.095 67.4185 156.095 68.1597V72H155.203V68.1919C155.203 67.7085 155.092 67.3504 154.87 67.1177C154.652 66.8849 154.312 66.7686 153.85 66.7686C153.23 66.7686 152.777 66.9351 152.491 67.2681C152.208 67.6011 152.066 68.1489 152.066 68.9116V72H151.175V66.1133H151.9L152.045 66.9189H152.088C152.271 66.6289 152.525 66.4051 152.851 66.2476C153.18 66.0864 153.549 66.0059 153.957 66.0059ZM161.681 72H160.789V63.6426H161.681V72ZM165.645 63.5728V63.6855C165.483 63.9219 165.247 64.2101 164.936 64.5503C164.624 64.8905 164.355 65.1519 164.13 65.3345H163.534V65.2002C163.706 64.9782 163.89 64.7096 164.087 64.3945C164.287 64.0794 164.445 63.8055 164.56 63.5728H165.645ZM164.463 72H163.571V66.1133H164.463V72ZM169.136 66.0059C169.852 66.0059 170.387 66.1795 170.742 66.5269C171.096 66.8742 171.273 67.4185 171.273 68.1597V72H170.382V68.1919C170.382 67.7085 170.271 67.3504 170.049 67.1177C169.83 66.8849 169.49 66.7686 169.028 66.7686C168.409 66.7686 167.956 66.9351 167.669 67.2681C167.387 67.6011 167.245 68.1489 167.245 68.9116V72H166.354V66.1133H167.079L167.224 66.9189H167.267C167.449 66.6289 167.703 66.4051 168.029 66.2476C168.359 66.0864 168.728 66.0059 169.136 66.0059ZM175.597 72.1074C174.727 72.1074 174.04 71.8424 173.535 71.3125C173.033 70.779 172.783 70.0396 172.783 69.0942C172.783 68.1489 173.015 67.3988 173.481 66.8438C173.95 66.2852 174.566 66.0059 175.329 66.0059C176.095 66.0059 176.691 66.2511 177.117 66.7417C177.547 67.2179 177.762 67.8553 177.762 68.6538V69.2178H173.707C173.724 69.9053 173.898 70.4299 174.228 70.7915C174.557 71.1496 175.031 71.3286 175.651 71.3286C176.27 71.3286 176.888 71.1961 177.504 70.9312V71.7261C177.192 71.8621 176.893 71.9588 176.607 72.0161C176.324 72.077 175.987 72.1074 175.597 72.1074ZM176.806 68.4927C176.806 67.9341 176.68 67.5062 176.43 67.209C176.179 66.9082 175.819 66.7578 175.35 66.7578C174.885 66.7578 174.51 66.91 174.228 67.2144C173.945 67.5187 173.778 67.9448 173.728 68.4927H176.806ZM179.507 66.5215C180.123 66.1849 180.786 66.0166 181.495 66.0166C182.204 66.0166 182.725 66.1742 183.058 66.4893C183.394 66.8008 183.562 67.2985 183.562 67.9824V72H182.907L182.73 71.1621H182.687C182.393 71.5309 182.1 71.7816 181.806 71.9141C181.516 72.043 181.153 72.1074 180.716 72.1074C180.132 72.1074 179.674 71.957 179.341 71.6562C179.008 71.3519 178.841 70.924 178.841 70.3726C178.841 69.1873 179.794 68.5643 181.699 68.5034L182.698 68.4712V68.106C182.698 67.6405 182.597 67.3003 182.397 67.0854C182.2 66.867 181.867 66.7578 181.398 66.7578C180.929 66.7578 180.39 66.9064 179.781 67.2036L179.507 66.5215ZM179.781 70.3833C179.781 70.702 179.878 70.9473 180.071 71.1191C180.265 71.2874 180.539 71.3716 180.893 71.3716C181.448 71.3716 181.883 71.2194 182.198 70.915C182.517 70.6071 182.676 70.181 182.676 69.6367V69.105L181.785 69.1426C181.076 69.1676 180.564 69.2786 180.249 69.4756C179.937 69.6689 179.781 69.9715 179.781 70.3833ZM185.281 71.4414C185.281 71.1979 185.335 71.0135 185.442 70.8882C185.553 70.7629 185.711 70.7002 185.915 70.7002C186.123 70.7002 186.284 70.7629 186.398 70.8882C186.517 71.0135 186.576 71.1943 186.576 71.4307C186.576 71.6634 186.517 71.8424 186.398 71.9678C186.284 72.0931 186.126 72.1558 185.926 72.1558C185.725 72.1558 185.568 72.0967 185.453 71.9785C185.339 71.8604 185.281 71.6813 185.281 71.4414Z" fill="#1E1E1E"/>
<line x1="1" y1="-4.37114e-08" x2="1" y2="17" stroke="#007EAE" stroke-width="2"/>
</svg>
